<svg fill="none" height="22" viewBox="0 0 28 22" width="28" xmlns="http://www.w3.org/2000/svg"><path d="m13.9662 5.73305-8.54248 7.01485v7.571c0 .196.0781.384.21713.5226.13902.1386.32759.2165.5242.2165l5.19215-.0134c.1959-.001.3835-.0793.5218-.2178.1382-.1385.2158-.3259.2158-.5213v-4.4214c0-.196.0781-.384.2171-.5227.139-.1386.3276-.2164.5242-.2164h2.9654c.1966 0 .3851.0778.5242.2164.139.1387.2171.3267.2171.5227v4.4181c-.0003.0973.0186.1937.0558.2836.0371.0899.0916.1717.1605.2406s.1507.1235.2408.1608.1867.0565.2842.0565l5.1903.0143c.1966 0 .3852-.0779.5242-.2165s.2171-.3266.2171-.5226v-7.5761l-8.5406-7.00975c-.1004-.08069-.2255-.12469-.3545-.12469-.1289 0-.254.044-.3544.12469zm13.4937 4.76785-3.8735-3.18334v-6.398558c0-.147022-.0586-.288022-.1629-.391983-.1042-.10396-.2457-.162364-.3931-.162364h-2.5947c-.1474 0-.2889.058404-.3931.162364-.1043.103961-.1629.244961-.1629.391983v3.354268l-4.1482-3.402773c-.3981-.326613-.8976-.50519-1.4132-.50519-.5155 0-1.0151.178577-1.4131.50519l-11.7284 9.630403c-.0563.0464-.10288.1034-.13708.1678-.03419.0643-.055339.1347-.062223.2072-.006885.0725.000626.1457.022104.2153.021479.0696.056499.1343.103069.1904l1.1815 1.4321c.04644.0563.10356.1029.1681.1372.06453.0342.13521.0555.20798.0625.07278.0069.14622-.0004.21613-.0218.06991-.0213.13491-.0562.19129-.1026l10.89853-8.94997c.1004-.08069.2255-.1247.3544-.1247.129 0 .2541.04401.3545.1247l10.899 8.94997c.0563.0464.1212.0813.191.1027.0698.0215.1431.0289.2159.0221.0727-.0069.1433-.028.2079-.0621.0645-.0341.1217-.0805.1682-.1366l1.1815-1.4321c.0465-.0564.0814-.1215.1026-.1914.0213-.0699.0284-.1433.0211-.216s-.029-.1432-.0637-.2075c-.0348-.0643-.0819-.1211-.1387-.1672z" fill="#495e57"/></svg>